<svg width="188" height="19" viewBox="0 0 188 19" fill="none" xmlns="http://www.w3.org/2000/svg">
<path d="M58.668 1.18066C79.2688 0.367383 99.9054 0.120077 120.508 1.36133C121.476 1.41951 122.663 1.45928 123.973 1.50586C125.279 1.55233 126.702 1.6048 128.129 1.6875C130.971 1.85217 133.879 2.13835 135.948 2.75293C136.388 2.8836 136.644 3.15754 136.764 3.4541C136.872 3.72303 136.85 3.96604 136.838 4.05273L136.836 4.06641C136.818 4.17183 136.772 4.36291 136.639 4.55078C136.496 4.75085 136.274 4.91518 135.961 4.98633L135.962 4.9873C135.885 5.00499 135.799 5.00764 135.751 5.00879C135.689 5.01026 135.616 5.00958 135.54 5.00781C135.387 5.00424 135.197 4.99617 135.004 4.98633C134.607 4.9661 134.201 4.94106 133.977 4.9375V4.93652C131.547 4.90608 129.214 4.81797 126.803 4.79785C119.839 4.74303 112.882 4.92785 105.902 5.03027C92.3534 5.23207 78.7352 5.17997 65.1768 5.67773C74.0372 5.70633 82.8989 5.79381 91.7588 6.01855C100.542 6.24088 101.834 6.36108 110.271 6.8877C115.841 7.23464 115.696 7.21504 120.763 7.63965C121.094 7.66749 121.695 7.69551 122.263 7.72559C122.543 7.74041 122.813 7.75569 123.03 7.77148C123.174 7.78195 123.329 7.79491 123.447 7.81348L123.552 7.83398V7.83496C123.816 7.9046 124.005 8.03629 124.138 8.18945C125.645 8.18763 127.155 8.18963 128.662 8.19434L131.118 8.20898C143.394 8.30632 155.655 8.79221 167.905 9.44043C172.106 9.66325 175.285 9.90237 179.381 10.0645C180.926 10.1241 183.382 10.1659 185.095 10.1934L186.419 10.209H186.418C186.853 10.2248 187.136 10.4502 187.294 10.6777C187.437 10.8836 187.479 11.088 187.487 11.1475H187.485C187.5 11.2458 187.522 11.4907 187.43 11.751C187.378 11.8965 187.287 12.0569 187.132 12.1904C186.975 12.3254 186.778 12.4112 186.551 12.4453L186.515 12.4512H186.498C186.49 12.4519 186.479 12.4532 186.467 12.4541C186.429 12.4568 186.379 12.459 186.315 12.459C186.302 12.459 186.266 12.4567 186.222 12.4531C185.954 12.4506 185.312 12.4464 185.058 12.4414V12.4404C183.339 12.413 180.86 12.3712 179.294 12.3086C175.186 12.1463 171.969 11.9059 167.789 11.6846C154.75 10.9936 141.707 10.4898 128.653 10.4424C125.536 10.4324 122.418 10.4338 119.301 10.4512C115.032 10.756 110.723 10.8112 106.43 10.8262C102.127 10.8412 97.846 10.817 93.6143 10.9639C79.0856 11.4691 64.4836 12.1052 49.9883 13.2471L47.0908 13.4824C36.176 14.3945 25.2799 15.4272 14.415 16.7627L12.2422 17.0342C9.7194 17.3529 7.22543 17.7242 4.71094 18.0811L2.1875 18.4307C2.15609 18.4348 2.11115 18.441 2.05859 18.4482C2.00677 18.4553 1.9476 18.4633 1.8916 18.4707C1.8363 18.478 1.78065 18.4851 1.73438 18.4902C1.71139 18.4928 1.68762 18.4953 1.66602 18.4971C1.65437 18.498 1.6162 18.4997 1.5752 18.498V18.5C1.19943 18.4854 0.929305 18.3192 0.757812 18.1084C0.601126 17.9156 0.546954 17.7114 0.52832 17.6299L0.529297 17.6289C0.515052 17.567 0.467093 17.3319 0.539062 17.0605C0.622361 16.7466 0.855201 16.4308 1.31445 16.2891H1.31641C7.04906 14.5381 13.3331 13.6983 19.6318 13.168C22.7823 12.9027 25.9432 12.7147 29.043 12.5293C32.1451 12.3438 35.186 12.1611 38.1074 11.9072C58.4581 10.1393 78.8906 9.01579 99.3301 8.50684C97.3408 8.42287 95.0792 8.35225 91.7041 8.2666C75.7861 7.86256 59.862 7.89464 43.9326 7.93457C34.7813 7.95939 24.739 8.6788 15.5234 6.8418C15.0974 6.75683 14.8111 6.54165 14.6455 6.27637C14.4916 6.02976 14.4692 5.78449 14.4717 5.6582C14.474 5.37768 14.5774 4.94531 15.0596 4.66797C15.2041 4.58461 15.4345 4.5118 15.6895 4.46484L16.21 4.3877C16.8082 4.31092 17.5735 4.23941 17.9131 4.19434H17.9141C21.0673 3.77871 24.2439 3.50731 27.3896 3.19629C36.4322 2.29928 45.4773 1.7426 54.5479 1.35059L58.668 1.18066ZM100.797 2.8457C85.4172 2.55642 70.0241 2.9349 54.6426 3.59668C45.6057 3.9857 36.6022 4.53953 27.6084 5.43164C26.6993 5.52195 25.7918 5.60827 24.8857 5.69531C31.2311 6.03745 37.7171 5.70426 43.9268 5.68652H43.9277C45.3957 5.68285 46.8638 5.68095 48.332 5.67773C48.3194 5.62222 48.3099 5.56529 48.3057 5.50684L48.3027 5.39355C48.3183 4.83294 48.7489 4.35109 49.3271 4.30371H49.3291C66.4104 2.98294 83.6808 3.03558 100.797 2.8457Z" fill="#3EB5D6" stroke="#3EB5D6"/>
</svg>
